<svg xmlns="http://www.w3.org/2000/svg" version="1.1" xmlns:xlink="http://www.w3.org/1999/xlink" xmlns:svgjs="http://svgjs.dev/svgjs" width="100%" height="100%" viewBox="0 0 1000 600"><rect width="1000" height="600" x="0" y="0" fill="#2b3252"/><g><circle r="166.66666666666666" cx="400.35712687174475" cy="422.5794014254237" fill="#fad744" transform="matrix(0.5348955813132696,0,0,0.5348955813132696,0,73.9641721264153)"/><path d="M405.8639266401602 439.7790164602788L354.4406394546496 439.7790164602788Q353.3765259070964 439.7790164602788 352.71145493987564 438.8213142674809Q352.04638397265484 437.863612074683 352.04638397265484 435.94820768908716L352.04638397265484 435.94820768908716Q352.04638397265484 432.1173989178954 354.4406394546496 432.1173989178954L354.4406394546496 432.1173989178954L405.8639266401602 432.1173989178954Q406.914738768369 432.1173989178954 407.5931111549342 433.0751011106933Q408.25818212215495 434.0328033034913 408.25818212215495 435.94820768908716L408.25818212215495 435.94820768908716Q408.25818212215495 439.7790164602788 405.8639266401602 439.7790164602788L405.8639266401602 439.7790164602788ZM405.8639266401602 463.7215712802268L354.4406394546496 463.7215712802268Q353.3765259070964 463.7215712802268 352.71145493987564 462.7638690874289Q352.04638397265484 461.80616689463096 352.04638397265484 459.89076250903514L352.04638397265484 459.89076250903514Q352.04638397265484 456.0599537378434 354.4406394546496 456.0599537378434L354.4406394546496 456.0599537378434L405.8639266401602 456.0599537378434Q406.914738768369 456.0599537378434 407.5931111549342 457.01765593064135Q408.25818212215495 457.97535812343926 408.25818212215495 459.89076250903514L408.25818212215495 459.89076250903514Q408.25818212215495 463.7215712802268 405.8639266401602 463.7215712802268L405.8639266401602 463.7215712802268ZM426.1618925597383 491.88067603235453L426.1618925597383 491.88067603235453Q429.4207402991201 484.79101952178104 432.0145170712811 476.85007217316496Q434.5949924240977 468.89582340520445 436.4571911323159 460.27650367002315Q438.33269125987846 451.65718393484184 439.2903934526764 442.1732719422736Q440.24809564547434 432.70266136904974 440.24809564547434 422.54037698991624L440.24809564547434 422.54037698991624Q440.24809564547434 409.03943635533443 438.57211680807796 396.7888291391277Q436.89613797068165 384.5249205035766 433.7304001667107 373.65766089918907Q430.5779637820842 362.7904012948016 426.1618925597383 353.3064893022333L426.1618925597383 353.3064893022333Q425.11108043152944 350.9122338202385 425.5899315279284 349.9545316274406Q426.06878262432735 348.9968294346427 428.0772969453341 348.22534711266655L428.0772969453341 348.22534711266655Q430.28533255650706 347.36075485527954 431.24303474930497 347.6533860808567Q432.20073694210294 347.9460173064338 432.97221926407906 349.6619004018634L432.97221926407906 349.6619004018634Q438.04006003430135 360.19662452264055 441.485127644505 371.8353664490042Q444.94349667405305 383.47410837536773 446.8056953822712 396.1636624299402Q448.66789409048937 408.85321648451264 448.66789409048937 422.64678834467156L448.66789409048937 422.64678834467156Q448.66789409048937 432.8888812398715 447.61708196228057 442.6122187806393Q446.56626983407176 452.33555632140707 444.557755513065 461.47363141102056Q442.5492411920582 470.62500791997843 439.6229289362868 479.0980120423712Q436.6966166805154 487.5710161647639 432.97221926407906 495.5252649327244L432.97221926407906 495.5252649327244Q432.20073694210294 497.14803809274304 431.24303474930497 497.48057357635344Q430.28533255650706 497.8264104793082 428.0772969453341 496.9618182219212L428.0772969453341 496.9618182219212Q426.06878262432735 496.0972259645342 425.5899315279284 495.192729449114Q425.11108043152944 494.27493151434925 426.1618925597383 491.88067603235453Z " fill="#2b3252" transform="matrix(0.5348955813132696,0,0,0.5348955813132696,0,73.9641721264153)"/><path d="M666.4615640040539 497.36282966409755L666.4615640040539 497.36282966409755Q663.4586766564315 497.36282966409755 660.8600241440662 497.0019057040468Q658.2613716317006 496.64098174399606 656.1247017882002 496.0635034079148Q653.9880319446996 495.5004620302357 652.6453948133109 494.7641771517321L652.6453948133109 494.7641771517321Q651.2883207235201 494.0423292316306 650.6675315122328 492.800750809056Q650.0467423009454 491.5447354280794 650.6675315122328 489.88448521184586L650.6675315122328 489.88448521184586Q651.1872620147059 488.00768061958195 652.2844708532601 487.2858326994804Q653.3672427334124 486.5639847793789 654.5077624471728 486.96821961463576L654.5077624471728 486.96821961463576Q656.485625748251 487.70450449313927 659.7050674719037 488.3252937044266Q662.9389461539585 488.94608291571393 666.4615640040539 488.94608291571393L666.4615640040539 488.94608291571393Q670.8359623998691 488.94608291571393 674.8927477108397 487.1847739906662Q678.9350960634081 485.40902810721644 682.9485704991725 481.30893192103986Q686.9476079765349 477.20883573486327 690.8888976202892 470.2357848266826Q694.8446242224455 463.277170876904 698.843661699808 452.9258717026483Q702.8426991771703 442.58900948679457 706.957232321749 428.23867283517643Q711.0573285079255 413.9027731419603 715.3162312365245 395.23578592813516Q719.5895709235255 376.58323567271196 724.0505910697528 352.8777499765782L724.0505910697528 352.8777499765782Q724.5703215722259 349.9759213377701 726.4471261644899 348.97977120803Q728.3094937983518 347.99805803669193 731.1247006867477 347.99805803669193L731.1247006867477 347.99805803669193Q734.142024992772 347.99805803669193 735.8455860842116 348.8787124992158Q737.5635841340533 349.75936696173966 738.1843733453405 352.8777499765782L738.1843733453405 352.8777499765782Q740.0611779376044 362.5505121059385 742.1400999474969 372.786315612978Q744.2190219573891 383.0221191200175 746.7599266361465 393.9364596719524Q749.3152682733058 404.85080022388735 752.3325925793303 416.76129090556236Q755.3354799269525 428.65734462883535 758.9302825690581 441.5495484818484Q762.5106482527616 454.44175233486146 766.8850466485768 468.67659331926336L766.8850466485768 468.67659331926336Q768.5452968648102 474.1915114288389 770.1477992474356 478.03174236377896Q771.764738588463 481.8864102571211 773.5837953471188 484.3262562270642Q775.4028521057746 486.76610219700734 777.481774115667 487.9066219107677Q779.5606961255594 489.04714162452814 782.0582899291106 489.04714162452814L782.0582899291106 489.04714162452814Q785.8985208640506 489.04714162452814 788.9735930036832 485.30796939840224Q792.0342281849136 481.56879717227645 794.4307632796506 474.0904527200247Q796.8128614159856 466.597671309371 798.3720529234049 455.48121333980765L798.3720529234049 455.48121333980765Q798.5886072994354 453.82096312357413 799.7291270131957 453.0846782450706Q800.8696467269561 452.3628303249691 803.0496274456627 452.781502118628L803.0496274456627 452.781502118628Q805.1285494555551 453.0846782450706 805.9658930428728 454.08082837481066Q806.7887996717885 455.0625415461488 806.5866822541601 456.62173305356805L806.5866822541601 456.62173305356805Q804.9264320379266 470.1347261178684 801.5481837718515 479.1722620775394Q798.1699355057765 488.2242349956124 793.2758066074882 492.800750809056Q788.396114667602 497.36282966409755 782.0582899291106 497.36282966409755L782.0582899291106 497.36282966409755Q777.900445909326 497.36282966409755 774.5655085184569 496.0201925327088Q771.24500808599 494.6631184429179 768.5452968648102 491.6024832616875Q765.8455856436306 488.527411122055 763.3913027152854 483.54666047335456Q760.9514567453423 478.5514728662521 758.5693586090073 471.2752458316288L758.5693586090073 471.2752458316288Q757.1112258104023 466.29449518292836 755.6530930117972 461.5591728270624Q754.1949602131921 456.82385047119647 752.8523230818033 452.2617716161549L752.8523230818033 452.2617716161549L708.1554998691174 452.2617716161549Q704.3008319757754 462.6563816656167 700.4606010408353 470.2357848266826Q696.6059331474931 477.82962494615055 692.5635847949247 483.07024084608753Q688.5067994839542 488.3252937044266 684.2912076305614 491.5014245528733Q680.0900527355706 494.6631184429179 675.6723434645493 496.0201925327088Q671.254634193528 497.36282966409755 666.4615640040539 497.36282966409755ZM710.9562697991113 444.2492597030281L710.9562697991113 444.2492597030281L750.5568466958805 444.2492597030281Q746.1968852584673 428.5562859200211 742.65983044997 414.3647558108253Q739.1227756414725 400.1732257016295 736.2209470026644 387.03559355578193Q733.3046814054543 373.8835244515323 730.9081463107173 361.4099923921781L730.9081463107173 361.4099923921781Q725.9273956620167 388.2194241447484 720.9322080549142 408.70546811722943Q715.9514574062138 429.1770751313084 710.9562697991113 444.2492597030281ZM866.6733031234103 497.57938404012805L866.6733031234103 497.57938404012805Q862.6165178124398 497.57938404012805 859.1805217127566 496.1789990751311Q855.7589625714754 494.7641771517321 853.203620934316 492.02115505534636Q850.6627162555587 489.2636960005586 849.2045834569536 485.1058519807738Q847.7464506583485 480.9480079609891 847.7464506583485 475.5341485602277L847.7464506583485 475.5341485602277L847.7464506583485 457.2425222648554Q847.7464506583485 452.8825608274422 846.4038135269598 451.366680195229Q845.0467394371689 449.86523652141784 842.6502043424318 449.86523652141784L842.6502043424318 449.86523652141784Q840.8888954173842 449.86523652141784 839.6906278700156 450.8036388175498Q838.4923603226471 451.74204111368175 837.8282602361537 453.5033500387295Q837.1497231912583 455.2646589637772 836.9331688152279 457.66119405851424L836.9331688152279 457.66119405851424Q836.8321101064137 459.3214442747477 836.009203477498 460.10104002845736Q835.1718598901801 460.88063578216696 833.2950552979162 460.88063578216696L833.2950552979162 460.88063578216696Q831.6348050816828 460.88063578216696 830.5953440767365 460.1587878620655Q829.5558830717904 459.4225029835619 829.6569417806046 456.7227917623822L829.6569417806046 456.7227917623822Q829.873496156635 452.2617716161549 831.4759985392604 448.98458205889403Q833.0929378802878 445.70739250163314 835.9514556438899 443.8883357429773Q838.8099734074918 442.06927898432144 842.6502043424318 442.06927898432144L842.6502043424318 442.06927898432144Q846.2883178597435 442.06927898432144 848.9447182057171 443.1087399892677Q851.6011185516907 444.1482009942138 853.3046796431303 446.3281817129204Q855.0226776929718 448.508162431627 855.8600212802896 451.74204111368175Q856.6829279092053 454.96148283733453 856.6829279092053 459.3214442747477L856.6829279092053 459.3214442747477L856.6829279092053 473.67178092636584Q856.6829279092053 478.03174236377896 857.3614649541007 481.0490666698033Q858.0400019989962 484.0663909758277 859.3393282551789 485.82769990087536Q860.6386545113617 487.60344578432506 862.717576521254 488.4263524132408Q864.7964985311464 489.2636960005586 867.5972684611403 489.2636960005586L867.5972684611403 489.2636960005586Q869.5751317622185 489.2636960005586 871.29312981206 488.7872763732916Q873.0111278619016 488.3252937044266 874.5125715357128 487.2280848658723Q876.0284521679259 486.14531298572007 877.2122827568924 484.4273149358784Q878.410550304261 482.7093168860368 879.2478938915788 480.26947091609367Q880.0708005204945 477.82962494615055 880.5472201477614 474.5524353888897Q881.0092028166264 471.2752458316288 881.0092028166264 467.1174018118441L881.0092028166264 467.1174018118441Q881.0092028166264 458.7006550634604 880.1862961877107 454.12413925001675Q879.3489526003929 449.5476234365732 877.8475089265818 447.72856667791734Q876.3316282943686 445.90950991926155 874.3537649932905 445.90950991926155L874.3537649932905 445.90950991926155Q872.4913973594284 445.90950991926155 871.812860314533 447.00671875781586Q871.1343232696377 448.10392759637017 871.1343232696377 449.3455060189448L871.1343232696377 449.3455060189448Q871.1343232696377 450.7025801087356 872.1737842745838 452.04521724012443Q873.21324527953 453.4022913299153 875.8696456255036 454.225197958831Q878.5116090130751 455.0625415461488 883.189183535333 455.0625415461488L883.189183535333 455.0625415461488Q887.1449101374893 455.0625415461488 890.6819649459867 453.4022913299153Q894.2190197544842 451.74204111368175 898.0592506894242 449.3455060189448L898.0592506894242 449.3455060189448Q899.3008291119988 448.508162431627 900.340290116945 449.1433886013163Q901.3797511218912 449.76417781260363 902.0149772915805 451.00575623517824Q902.6357665028678 452.2617716161549 902.6357665028678 453.5610978723376Q902.6357665028678 454.8604241285203 901.6973642067359 455.48121333980765L901.6973642067359 455.48121333980765Q897.2219071021065 458.59959635464617 892.9630043735075 460.2598465708797Q888.7041016449086 461.92009678711315 883.189183535333 461.92009678711315L883.189183535333 461.92009678711315Q876.8513587968416 461.92009678711315 872.751262610665 460.3175944044878Q868.6367294660864 458.7006550634604 866.6155552898022 455.8421372998584Q864.5943811135179 452.9836195362564 864.5943811135179 449.3455060189448L864.5943811135179 449.3455060189448Q864.5943811135179 446.54473608895086 865.7349008272784 444.40806624545036Q866.8754205410387 442.2713964019499 869.0554012597453 441.0875658129834Q871.2353819784519 439.8892982656149 874.3537649932905 439.8892982656149L874.3537649932905 439.8892982656149Q879.868683102866 439.8892982656149 883.3046792025492 443.42635307411234Q886.7262383438305 446.94897092420774 888.3431776848579 453.0846782450706Q889.9456800674832 459.2203855659335 889.9456800674832 467.1174018118441L889.9456800674832 467.1174018118441Q889.9456800674832 471.89603504291614 889.2815799809898 476.01056818749475Q888.6030429360944 480.11066437367134 887.3037166799116 483.48891263974645Q886.0043904237289 486.86716090582155 884.0842749562589 489.465813418187Q882.1497225303868 492.06446593055244 879.5510700180214 493.8835226892083Q876.9524175056558 495.7025794478641 873.7329757820031 496.64098174399606Q870.5135340583504 497.57938404012805 866.6733031234103 497.57938404012805ZM918.2276815770606 497.36282966409755L918.2276815770606 497.36282966409755Q912.8138221762993 497.36282966409755 910.373976206356 494.5620597341037Q907.934130236413 491.7612898041098 907.934130236413 486.66504348819313L907.934130236413 486.66504348819313L907.934130236413 444.7689902055011Q907.934130236413 443.42635307411234 909.0313390749673 442.7478160292169Q910.1141109551195 442.06927898432144 912.2940916738262 442.06927898432144L912.2940916738262 442.06927898432144Q914.5895680597489 442.06927898432144 915.7300877735094 442.7478160292169Q916.8706074872697 443.42635307411234 916.8706074872697 444.7689902055011L916.8706074872697 444.7689902055011L916.8706074872697 485.62558248324694Q916.8706074872697 487.70450449313927 917.8090097834017 488.6429067892713Q918.7474120795337 489.5668721270012 920.0900492109225 489.5668721270012L920.0900492109225 489.5668721270012Q921.2450058830849 489.5668721270012 922.0246016367946 489.20594816695046Q922.8041973905042 488.84502420689967 923.4682974769976 488.3252937044266Q924.146834521893 487.8055632019535 924.9841781092107 487.1847739906662L924.9841781092107 487.1847739906662Q925.6049673204981 486.66504348819313 926.7021761590523 487.083715281852Q927.7849480392047 487.4879501171088 928.4057372504919 488.3252937044266L928.4057372504919 488.3252937044266Q929.2430808378097 489.2636960005586 929.3441395466239 490.3031570055047Q929.4451982554381 491.34261801045096 928.8244090441508 492.16552463936665L928.8244090441508 492.16552463936665Q927.6838893303905 493.8402118140022 925.9658912805488 494.98073152776254Q924.2478932307072 496.121251241523 922.226719054423 496.7420404528103Q920.2055448781387 497.36282966409755 918.2276815770606 497.36282966409755ZM912.5106460498566 426.05869211646984L912.5106460498566 426.05869211646984Q909.5943804526464 426.05869211646984 908.0929367788353 424.4561897338445Q906.5770561466221 422.83925039281706 906.5770561466221 419.61980866916434L906.5770561466221 419.61980866916434Q906.5770561466221 416.2848712782953 908.0929367788353 414.62462106206186Q909.5943804526464 412.96437084582834 912.5106460498566 412.96437084582834L912.5106460498566 412.96437084582834Q915.3114159798505 412.96437084582834 916.7695487784556 414.62462106206186Q918.2276815770606 416.2848712782953 918.2276815770606 419.61980866916434L918.2276815770606 419.61980866916434Q918.3287402858748 422.83925039281706 916.8272966120636 424.4561897338445Q915.3114159798505 426.05869211646984 912.5106460498566 426.05869211646984ZM956.1680082575963 497.36282966409755L956.1680082575963 497.36282966409755Q950.2344183543618 497.36282966409755 945.6723394993203 494.50431190049557Q941.0958236858767 491.6457941368936 938.4971711735111 485.82769990087536Q935.8985186611458 480.00960566485713 935.8985186611458 471.1741871228146L935.8985186611458 471.1741871228146Q935.8985186611458 465.77476468045523 936.9379796660919 461.1982488670116Q937.977440671038 456.62173305356805 939.8975561385081 452.9836195362564Q941.8176716059781 449.3455060189448 944.67618936958 446.8479122153935Q947.5347071331821 444.35031841184224 951.273879359308 443.0076812804534Q955.0274885438358 441.6506071906626 959.4885086900632 441.6506071906626L959.4885086900632 441.6506071906626Q962.6068917049017 441.6506071906626 966.1439465133992 442.58900948679457Q969.6810013218967 443.52741178292655 972.7993843367351 445.2887207079742L972.7993843367351 445.2887207079742L972.7993843367351 350.6977692578716Q972.7993843367351 349.35513212648283 973.9399040504956 348.6765950815874Q975.080423764256 347.99805803669193 977.2604044829625 347.99805803669193L977.2604044829625 347.99805803669193Q979.5558808688854 347.99805803669193 980.6386527490376 348.6765950815874Q981.7358615875919 349.35513212648283 981.7358615875919 350.6977692578716L981.7358615875919 350.6977692578716L981.7358615875919 485.62558248324694Q981.7358615875919 487.70450449313927 982.6165160501157 488.6429067892713Q983.4971705126396 489.5668721270012 984.9553033112447 489.5668721270012L984.9553033112447 489.5668721270012Q985.8937056073767 489.5668721270012 986.6733013610863 489.2636960005586Q987.4528971147959 488.94608291571393 988.1747450348975 488.4263524132408Q988.911029913401 487.9066219107677 989.7339365423168 487.2858326994804L989.7339365423168 487.2858326994804Q990.5712801296345 486.66504348819313 991.5529933009725 487.083715281852Q992.5491434307127 487.4879501171088 993.2709913508141 488.3252937044266L993.2709913508141 488.3252937044266Q994.1083349381319 489.2636960005586 994.2671414805543 490.3031570055047Q994.4115110645746 491.34261801045096 993.7907218532873 492.16552463936665L993.7907218532873 492.16552463936665Q992.6502021395268 493.8402118140022 990.8888932144791 494.98073152776254Q989.1131473310294 496.121251241523 987.0919731547451 496.7420404528103Q985.0563620200589 497.36282966409755 982.9774400101664 497.36282966409755L982.9774400101664 497.36282966409755Q979.0361503664122 497.36282966409755 976.8561696477057 495.9191338238946Q974.6617519705972 494.4610010252895 973.7810975080732 492.324331181789Q972.9004430455493 490.2020982966905 972.9004430455493 488.00768061958195L972.9004430455493 488.00768061958195Q972.9004430455493 487.9066219107677 972.9004430455493 487.8633110355616Q972.9004430455493 487.8055632019535 972.9004430455493 487.70450449313927L972.9004430455493 487.70450449313927Q970.4028492419982 491.6457941368936 967.5443314783961 493.72471614678597Q964.6858137147942 495.80363815667835 961.783985075986 496.58323391038795Q958.8677194787758 497.36282966409755 956.1680082575963 497.36282966409755ZM945.0371133296309 470.7555153291557L945.0371133296309 470.7555153291557Q945.0371133296309 476.4725508563597 946.3941874194218 480.5870840009383Q947.7512615092126 484.68718018711496 950.4942836055983 486.86716090582155Q953.2517426603861 489.04714162452814 957.4095866801708 489.04714162452814L957.4095866801708 489.04714162452814Q960.4269109861953 489.04714162452814 963.1843700409829 488.00768061958195Q965.9418290957708 486.96821961463576 968.3816750657138 484.58612147830075Q970.821521035657 482.1895863835637 972.7993843367351 478.34935544862367L972.7993843367351 478.34935544862367L972.7993843367351 453.6044087475437Q969.5799426130824 451.5254867376513 966.4615595982439 450.7025801087356Q963.3431765834052 449.86523652141784 960.0082391925363 449.86523652141784L960.0082391925363 449.86523652141784Q957.3085279713566 449.86523652141784 955.0274885438358 450.7025801087356Q952.732012157913 451.5254867376513 950.8696445240512 453.1857369538848Q948.9928399317871 454.8604241285203 947.6935136756044 457.34358097366953Q946.3941874194218 459.8411747772208 945.7156503745264 463.1761121680898Q945.0371133296309 466.4966126005568 945.0371133296309 470.7555153291557ZM1021.4374971931753 497.36282966409755L1021.4374971931753 497.36282966409755Q1015.5183442483428 497.36282966409755 1010.9418284348992 494.50431190049557Q1006.3653126214556 491.6457941368936 1003.7666601090903 485.82769990087536Q1001.1680075967247 480.00960566485713 1001.1680075967247 471.1741871228146L1001.1680075967247 471.1741871228146Q1001.1680075967247 465.77476468045523 1002.1641577264649 461.1982488670116Q1003.1458708978029 456.62173305356805 1005.123734198881 452.9836195362564Q1007.1015974999592 449.3455060189448 1009.9023674299531 446.8479122153935Q1012.7175743183491 444.35031841184224 1016.3556878356607 443.0076812804534Q1019.9938013529722 441.6506071906626 1024.3537627903856 441.6506071906626L1024.3537627903856 441.6506071906626Q1027.6742632228525 441.6506071906626 1031.21131803135 442.7478160292169Q1034.7483728398474 443.83058790936917 1037.8667558546858 445.60633379281893L1037.8667558546858 445.60633379281893L1037.8667558546858 445.0866032903458Q1037.8667558546858 443.52741178292655 1039.0072755684464 442.791126904423Q1040.1477952822065 442.06927898432144 1042.4432716681295 442.06927898432144L1042.4432716681295 442.06927898432144Q1044.7243110956501 442.06927898432144 1045.8215199342044 442.7478160292169Q1046.9042918143568 443.42635307411234 1046.9042918143568 444.87004891431536L1046.9042918143568 444.87004891431536L1046.9042918143568 485.62558248324694Q1046.9042918143568 486.96821961463576 1047.322963608016 487.8633110355616Q1047.7416354016746 488.7439654980855 1048.463483321776 489.1626372917444Q1049.1997682002798 489.5668721270012 1050.1381704964115 489.5668721270012L1050.1381704964115 489.5668721270012Q1051.177631501358 489.5668721270012 1051.8417315878514 489.30700687576467Q1052.5202686327466 489.04714162452814 1053.1988056776422 488.527411122055Q1053.8773427225374 488.00768061958195 1054.8157450186695 487.2858326994804L1054.8157450186695 487.2858326994804Q1055.537592938771 486.66504348819313 1056.4759952349027 486.92490873942967Q1057.4143975310349 487.1847739906662 1058.3383628687648 488.00768061958195L1058.3383628687648 488.00768061958195Q1059.276765164897 489.04714162452814 1059.377823873711 490.2020982966905Q1059.4933195409271 491.34261801045096 1058.973589038454 492.16552463936665L1058.973589038454 492.16552463936665Q1057.8186323662917 493.8402118140022 1056.057323441244 494.98073152776254Q1054.2960145161965 496.121251241523 1052.26040338151 496.7420404528103Q1050.239229205226 497.36282966409755 1048.1603071953336 497.36282966409755L1048.1603071953336 497.36282966409755Q1045.7637721005967 497.36282966409755 1044.0024631755487 496.8430991616245Q1042.2267172920992 496.3233686591514 1040.9851388695247 495.24059677899913Q1039.7435604469497 494.1433879404448 1039.0650234020545 492.5841964330255Q1038.386486357159 491.0250049256063 1038.0688732723142 489.04714162452814L1038.0688732723142 489.04714162452814Q1038.0688732723142 488.94608291571393 1037.9678145635003 488.5851589556632Q1037.8667558546858 488.2242349956124 1037.8667558546858 487.8055632019535L1037.8667558546858 487.8055632019535Q1035.470220759949 491.6457941368936 1032.7271986635633 493.72471614678597Q1029.9697396087754 495.80363815667835 1027.053474011565 496.58323391038795Q1024.1516453727572 497.36282966409755 1021.4374971931753 497.36282966409755ZM1010.3210392236119 470.7555153291557L1010.3210392236119 470.7555153291557Q1010.3210392236119 476.4725508563597 1011.6781133134028 480.5870840009383Q1013.0207504447917 484.68718018711496 1015.7782094995794 486.86716090582155Q1018.5356685543672 489.04714162452814 1022.693512574152 489.04714162452814L1022.693512574152 489.04714162452814Q1025.7108368801764 489.04714162452814 1028.453858976562 488.00768061958195Q1031.21131803135 486.96821961463576 1033.6078531260869 484.58612147830075Q1035.989951262422 482.1895863835637 1037.8667558546858 478.34935544862367L1037.8667558546858 478.34935544862367L1037.8667558546858 453.1857369538848Q1034.647314131033 451.2223106112087 1031.6299898250086 450.54377356631323Q1028.6126655189846 449.86523652141784 1025.2921650865173 449.86523652141784L1025.2921650865173 449.86523652141784Q1022.5924538653378 449.86523652141784 1020.2969774794149 450.7025801087356Q1018.0159380518941 451.5254867376513 1016.1391334596301 453.1857369538848Q1014.2767658257683 454.8604241285203 1012.9774395695855 457.34358097366953Q1011.6781133134028 459.8411747772208 1010.9995762685073 463.1761121680898Q1010.3210392236119 466.4966126005568 1010.3210392236119 470.7555153291557ZM1119.363386034147 497.57938404012805L1119.363386034147 497.57938404012805Q1112.3903351259664 497.57938404012805 1106.9331648499988 494.4610010252895Q1101.4759945740316 491.34261801045096 1098.3576115591927 485.206910689588Q1095.2392285443543 479.0712033687252 1095.2392285443543 470.1347261178684L1095.2392285443543 470.1347261178684Q1095.2392285443543 463.89796008819127 1097.05828530301 458.64290722985226Q1098.8773420616658 453.4022913299153 1102.1545316189267 449.6053712701813Q1105.4317211761877 445.80845121044734 1109.9071782808173 443.72952920055496Q1114.3681984270447 441.6506071906626 1119.782057827806 441.6506071906626L1119.782057827806 441.6506071906626Q1124.3441366828474 441.6506071906626 1129.1805177475276 443.57072265813264Q1134.0168988122077 445.5052750840047 1137.8571297471476 450.0673539390463L1137.8571297471476 450.0673539390463Q1139.0120864193104 451.5254867376513 1138.752221168074 452.66600645141176Q1138.4923559168374 453.82096312357413 1137.3373992446745 455.0625415461488L1137.3373992446745 455.0625415461488Q1135.994762113286 456.4196156359396 1134.7964945659173 456.7227917623822Q1133.598227018549 457.0404048472269 1132.356648595974 456.0009438422807L1132.356648595974 456.0009438422807Q1129.5414417075785 453.6044087475437 1126.7406717775843 451.7853519888879Q1123.9399018475906 449.96629523023205 1119.363386034147 449.96629523023205L1119.363386034147 449.96629523023205Q1115.927389934464 449.96629523023205 1113.1266200044697 451.3233693200229Q1110.3114131160742 452.66600645141176 1108.391297648604 455.2646589637772Q1106.4711821811338 457.86331147614266 1105.4317211761877 461.4581141182482Q1104.3922601712416 465.0384798019517 1104.3922601712416 469.61499561539534L1104.3922601712416 469.61499561539534Q1104.3922601712416 475.649644227444 1106.2113169298973 480.06735349846525Q1108.030373688553 484.48506276948655 1111.4086219546284 486.86716090582155Q1114.7868702207033 489.2636960005586 1119.363386034147 489.2636960005586L1119.363386034147 489.2636960005586Q1122.6838864666138 489.2636960005586 1125.022673727743 488.3252937044266Q1127.3614609888718 487.3868914082946 1129.3393242899501 485.66889335845303Q1131.317187591028 483.9653322670135 1133.4971683097347 481.56879717227645L1133.4971683097347 481.56879717227645Q1134.6376880234952 480.428277458516 1135.8937034044716 480.5293361673302Q1137.1352818270461 480.6303948761444 1138.5934146256513 481.77091458990486L1138.5934146256513 481.77091458990486Q1140.0515474242566 482.92587126206723 1140.4557822595134 484.00864314221957Q1140.874454053172 485.1058519807738 1139.9360517570403 486.4484891121627L1139.9360517570403 486.4484891121627Q1137.1352818270461 490.5052744231332 1133.6559748521572 492.9451203930763Q1130.1766678772678 495.39940332142146 1126.4808065263478 496.48217520157374Q1122.7849451754282 497.57938404012805 1119.363386034147 497.57938404012805ZM1175.494280301241 497.57938404012805L1175.494280301241 497.57938404012805Q1168.5212293930604 497.57938404012805 1163.0207482418868 493.9412705228164Q1157.505830132311 490.3031570055047 1154.3874471174727 484.00864314221957Q1151.2690641026338 477.72856623733634 1151.2690641026338 469.61499561539534L1151.2690641026338 469.61499561539534Q1151.2690641026338 464.10007750581974 1152.9293143188675 459.48025081717003Q1154.604001493503 454.8604241285203 1157.9245019259702 451.4821758624452Q1161.245002358437 448.10392759637017 1166.3412486743537 446.1693751704981Q1171.4374949902704 444.2492597030281 1178.2950502312347 444.2492597030281L1178.2950502312347 444.2492597030281L1178.0929328136062 448.82577551647165Q1174.0361475026357 448.82577551647165 1170.8167057789829 450.2261604814686Q1167.5972640553305 451.6265454464655 1165.2584767942012 454.38400450125334Q1162.9196895330724 457.1414635560411 1161.7214219857037 460.9383836157751Q1160.5231544383355 464.7353036755091 1160.5231544383355 469.61499561539534L1160.5231544383355 469.61499561539534Q1160.5231544383355 475.649644227444 1162.3422111969912 480.06735349846525Q1164.161267955647 484.48506276948655 1167.539516221722 486.86716090582155Q1170.9177644877973 489.2636960005586 1175.494280301241 489.2636960005586L1175.494280301241 489.2636960005586Q1178.9158394425222 489.2636960005586 1181.67329849731 487.9066219107677Q1184.4307575520975 486.5639847793789 1186.3075621443618 483.9653322670135Q1188.1699297782234 481.36667975464803 1189.2093907831695 477.72856623733634Q1190.2488517881156 474.0904527200247 1190.2488517881156 469.61499561539534L1190.2488517881156 469.61499561539534Q1190.2488517881156 463.5803470033466 1188.487542863068 459.1626377323254Q1186.7117969796186 454.7449284613041 1183.3912965471513 452.3628303249691Q1180.0707961146845 449.96629523023205 1175.494280301241 449.96629523023205L1175.494280301241 449.96629523023205Q1171.9572254927434 449.96629523023205 1169.9793621916651 451.06350406878636Q1168.0014988905873 452.14627594893864 1168.0014988905873 454.225197958831L1168.0014988905873 454.225197958831Q1168.0014988905873 456.0009438422807 1169.5173795228002 457.2425222648554Q1171.0188231966113 458.49853764583196 1173.4153582913486 459.1193268571193Q1175.7974564276833 459.74011606840656 1178.396108940049 459.74011606840656L1178.396108940049 459.74011606840656Q1181.9331637485466 459.74011606840656 1185.571277265858 458.7584028970685Q1189.2093907831695 457.7622527673284 1193.627100054191 455.163600254963Q1198.044809325212 452.5649477425975 1203.7618448524163 447.8873732203397L1203.7618448524163 447.8873732203397Q1205.118918942207 446.74685350657927 1206.3604973647816 447.064466591424Q1207.6165127457584 447.3676427178666 1208.33836066586 448.508162431627Q1209.0602085859614 449.6631191037894 1209.016897710755 451.06350406878636Q1208.959149877147 452.4638890337833 1207.7175714545724 453.5033500387295L1207.7175714545724 453.5033500387295Q1201.163192340051 459.0182681483051 1196.023635148928 461.87678591190706Q1190.8696409994031 464.7353036755091 1186.6107382708042 465.7170168468471Q1182.3518355422052 466.6987300181852 1178.1939915224207 466.6987300181852L1178.1939915224207 466.6987300181852Q1173.5164170001626 466.6987300181852 1169.1997664379555 465.3560928867964Q1164.8831158757484 463.99901879700553 1162.1834046545687 460.9383836157751Q1159.4836934333894 457.86331147614266 1159.4836934333894 452.9836195362564L1159.4836934333894 452.9836195362564Q1159.4836934333894 449.6631191037894 1161.8224806945182 447.10777746663007Q1164.161267955647 444.56687278787274 1167.857129306567 443.1087399892677Q1171.5385536990843 441.6506071906626 1175.494280301241 441.6506071906626L1175.494280301241 441.6506071906626Q1182.4528942510196 441.6506071906626 1187.8667536517805 445.24540983276813Q1193.26617609414 448.82577551647165 1196.384559108979 455.163600254963Q1199.5029421238173 461.5014249934543 1199.5029421238173 469.61499561539534L1199.5029421238173 469.61499561539534Q1199.5029421238173 474.4946875552816 1198.3624224100568 478.7680272422825Q1197.2219026962966 483.02692997088144 1195.0274850191877 486.4484891121627Q1192.8475043004814 489.88448521184586 1189.8879278280651 492.3820790153971Q1186.9283513556488 494.87967281894834 1183.2902378383374 496.2223099503372Q1179.6521243210254 497.57938404012805 1175.494280301241 497.57938404012805ZM1222.6886973174778 497.16071224646913L1222.6886973174778 497.16071224646913Q1220.4942796403693 497.16071224646913 1219.4115077602173 496.48217520157374Q1218.3142989216626 495.80363815667835 1218.3142989216626 494.4610010252895L1218.3142989216626 494.4610010252895L1218.3142989216626 457.2425222648554Q1218.3142989216626 452.8825608274422 1216.971661790274 451.366680195229Q1215.6145877004828 449.86523652141784 1213.218052605746 449.86523652141784L1213.218052605746 449.86523652141784Q1211.4567436806983 449.86523652141784 1210.2584761333296 450.8036388175498Q1209.0602085859614 451.74204111368175 1208.396108499468 453.5033500387295Q1207.7175714545724 455.2646589637772 1207.5010170785422 457.66119405851424L1207.5010170785422 457.66119405851424Q1207.3999583697278 459.3214442747477 1206.5770517408123 460.10104002845736Q1205.7397081534946 460.88063578216696 1203.8629035612303 460.88063578216696L1203.8629035612303 460.88063578216696Q1202.202653344997 460.88063578216696 1201.163192340051 460.1587878620655Q1200.1237313351044 459.4225029835619 1200.2247900439188 456.7227917623822L1200.2247900439188 456.7227917623822Q1200.441344419949 452.2617716161549 1202.0438468025745 448.98458205889403Q1203.6607861436019 445.70739250163314 1206.5193039072042 443.8883357429773Q1209.377821670806 442.06927898432144 1213.218052605746 442.06927898432144L1213.218052605746 442.06927898432144Q1216.1343182029564 442.06927898432144 1218.3142989216626 442.7478160292169Q1220.4942796403693 443.42635307411234 1222.1689668150048 444.66793149668695Q1223.8292170312384 445.90950991926155 1224.8686780361845 447.72856667791734Q1225.9081390411307 449.5476234365732 1226.4278695436037 451.74204111368175L1226.4278695436037 451.74204111368175L1226.5289282524182 452.14627594893864Q1228.1891784686513 449.1433886013163 1230.2681004785436 447.1655253002382Q1232.3470224884363 445.18766199916 1234.5847510407511 443.9460835765854Q1236.8224795930655 442.6900681956088 1239.1035190205866 442.1703376931357Q1241.3989954065091 441.6506071906626 1243.3624217491852 441.6506071906626L1243.3624217491852 441.6506071906626Q1248.6752224411325 441.6506071906626 1252.833066460917 443.62847049174076Q1256.990910480702 445.60633379281893 1259.4307564506453 449.8074886878097Q1261.870602420588 454.02308054120255 1261.870602420588 460.88063578216696L1261.870602420588 460.88063578216696L1261.870602420588 494.4610010252895Q1261.870602420588 495.80363815667835 1260.730082706828 496.48217520157374Q1259.5895629930674 497.16071224646913 1257.2940866071444 497.16071224646913L1257.2940866071444 497.16071224646913Q1255.0130471796238 497.16071224646913 1253.9158383410695 496.48217520157374Q1252.833066460917 495.80363815667835 1252.833066460917 494.4610010252895L1252.833066460917 494.4610010252895L1252.833066460917 461.71797936948474Q1252.833066460917 457.9788071433589 1251.793605455971 455.3224067973853Q1250.7541444510248 452.66600645141176 1248.415357189896 451.3233693200229Q1246.0765699287672 449.96629523023205 1242.1208433266106 449.96629523023205L1242.1208433266106 449.96629523023205Q1240.2440387343468 449.96629523023205 1238.2806123916707 450.54377356631323Q1236.3027490905924 451.10681494399245 1234.2671379559065 452.4638890337833Q1232.245963779622 453.82096312357413 1230.4846548545743 456.0009438422807Q1228.7089089711244 458.1809245609873 1227.2507761725196 461.4003662846401L1227.2507761725196 461.4003662846401L1227.2507761725196 494.4610010252895Q1227.2507761725196 495.80363815667835 1226.110256458759 496.48217520157374Q1224.969736744999 497.16071224646913 1222.6886973174778 497.16071224646913ZM1297.529889673603 497.36282966409755L1297.529889673603 497.36282966409755Q1294.8157414940215 497.36282966409755 1292.8523151513455 496.64098174399606Q1290.8744518502672 495.9191338238946 1289.6761843028985 494.5620597341037Q1288.4779167555303 493.20498564431284 1287.9148753778509 491.18381146802864Q1287.3373970417697 489.1626372917444 1287.3373970417697 486.66504348819313L1287.3373970417697 486.66504348819313L1287.3373970417697 461.71797936948474Q1287.3373970417697 458.0798658521731 1286.2979360368236 455.42346550619953Q1285.2584750318774 452.781502118628 1282.9196877707486 451.366680195229Q1280.5809005096194 449.96629523023205 1276.7406695746795 449.96629523023205L1276.7406695746795 449.96629523023205Q1274.026521395098 449.96629523023205 1271.2834992987118 450.90469752636403Q1268.526040243924 451.843099822496 1266.028446440373 453.9653327075944Q1263.5308526368217 456.1020025510949 1261.6107371693515 459.74011606840656Q1259.6906217018818 463.3782295857182 1258.5501019881212 468.67659331926336L1258.5501019881212 468.67659331926336L1255.8359538085397 468.67659331926336Q1255.8359538085397 462.7574403744309 1257.452893149567 457.82000060093657Q1259.0698324905943 452.8825608274422 1262.0294089630106 449.2444473101305Q1264.988985435427 445.60633379281893 1269.0457707463975 443.62847049174076Q1273.102556057368 441.6506071906626 1277.982247997254 441.6506071906626L1277.982247997254 441.6506071906626Q1283.2806117307991 441.6506071906626 1287.3951448753778 443.62847049174076Q1291.4952410615542 445.60633379281893 1293.8917761562916 449.8074886878097Q1296.2738742926263 454.02308054120255 1296.2738742926263 460.88063578216696L1296.2738742926263 460.88063578216696L1296.2738742926263 485.62558248324694Q1296.2738742926263 486.96821961463576 1296.6925460862853 487.8633110355616Q1297.111217879944 488.7439654980855 1297.833065800046 489.1626372917444Q1298.5693506785492 489.5668721270012 1299.493316016279 489.5668721270012L1299.493316016279 489.5668721270012Q1300.749331397256 489.5668721270012 1301.4711793173574 489.2636960005586Q1302.2074641958611 488.94608291571393 1302.8282534071482 488.4263524132408Q1303.4490426184357 487.9066219107677 1304.2863862057534 487.2858326994804L1304.2863862057534 487.2858326994804Q1305.0082341258549 486.76610219700734 1306.047695130801 487.0259674482439Q1307.0871561357471 487.2858326994804 1307.9244997230649 488.4263524132408L1307.9244997230649 488.4263524132408Q1308.5452889343524 489.1626372917444 1308.7474063519808 490.24540917189665Q1308.963960728011 491.34261801045096 1308.3287345583217 492.16552463936665L1308.3287345583217 492.16552463936665Q1307.1882148445616 493.8402118140022 1305.4269059195135 494.98073152776254Q1303.651160036064 496.121251241523 1301.6299858597795 496.7420404528103Q1299.6088116834953 497.36282966409755 1297.529889673603 497.36282966409755ZM1339.512564706707 497.57938404012805L1339.512564706707 497.57938404012805Q1332.5539507569288 497.57938404012805 1327.039032647353 493.9412705228164Q1321.5385514961795 490.3031570055047 1318.420168481341 484.00864314221957Q1315.3017854665022 477.72856623733634 1315.3017854665022 469.61499561539534L1315.3017854665022 469.61499561539534Q1315.3017854665022 464.10007750581974 1316.9620356827359 459.48025081717003Q1318.6222858989695 454.8604241285203 1321.9572232898386 451.4821758624452Q1325.2777237223054 448.10392759637017 1330.373970038222 446.1693751704981Q1335.4702163541388 444.2492597030281 1342.327771595103 444.2492597030281L1342.327771595103 444.2492597030281L1342.1112172190728 448.82577551647165Q1338.068868866504 448.82577551647165 1334.8349901844495 450.2261604814686Q1331.6155484607966 451.6265454464655 1329.2767611996678 454.38400450125334Q1326.937973938539 457.1414635560411 1325.7397063911703 460.9383836157751Q1324.555875802204 464.7353036755091 1324.555875802204 469.61499561539534L1324.555875802204 469.61499561539534Q1324.555875802204 475.649644227444 1326.3749325608596 480.06735349846525Q1328.1939893195154 484.48506276948655 1331.5722375855908 486.86716090582155Q1334.9504858516657 489.2636960005586 1339.512564706707 489.2636960005586L1339.512564706707 489.2636960005586Q1342.9485608063906 489.2636960005586 1345.7060198611784 487.9066219107677Q1348.4634789159659 486.5639847793789 1350.325846549828 483.9653322670135Q1352.2026511420918 481.36667975464803 1353.242112147038 477.72856623733634Q1354.2815731519845 474.0904527200247 1354.2815731519845 469.61499561539534L1354.2815731519845 469.61499561539534Q1354.2815731519845 463.5803470033466 1352.5058272685346 459.1626377323254Q1350.744518343487 454.7449284613041 1347.4240179110197 452.3628303249691Q1344.0890805201507 449.96629523023205 1339.512564706707 449.96629523023205L1339.512564706707 449.96629523023205Q1335.9899468566118 449.96629523023205 1334.0120835555335 451.06350406878636Q1332.0342202544557 452.14627594893864 1332.0342202544557 454.225197958831L1332.0342202544557 454.225197958831Q1332.0342202544557 456.0009438422807 1333.5356639282668 457.2425222648554Q1335.0515445604801 458.49853764583196 1337.4336426968148 459.1193268571193Q1339.8301777915522 459.74011606840656 1342.4288303039175 459.74011606840656L1342.4288303039175 459.74011606840656Q1345.965885112415 459.74011606840656 1349.6039986297264 458.7584028970685Q1353.242112147038 457.7622527673284 1357.6598214180594 455.163600254963Q1362.0775306890805 452.5649477425975 1367.7945662162847 447.8873732203397L1367.7945662162847 447.8873732203397Q1369.1372033476732 446.74685350657927 1370.39321872865 447.064466591424Q1371.6347971512246 447.3676427178666 1372.3710820297283 448.508162431627Q1373.0929299498298 449.6631191037894 1373.0351821162217 451.06350406878636Q1372.9918712410154 452.4638890337833 1371.735855860039 453.5033500387295L1371.735855860039 453.5033500387295Q1365.1959137039194 459.0182681483051 1360.0419195543946 461.87678591190706Q1354.9023623632715 464.7353036755091 1350.6434596346726 465.7170168468471Q1346.3845569060736 466.6987300181852 1342.226712886289 466.6987300181852L1342.226712886289 466.6987300181852Q1337.549138364031 466.6987300181852 1333.232487801824 465.3560928867964Q1328.9158372396168 463.99901879700553 1326.2161260184375 460.9383836157751Q1323.5164147972578 457.86331147614266 1323.5164147972578 452.9836195362564L1323.5164147972578 452.9836195362564Q1323.5164147972578 449.6631191037894 1325.8552020583866 447.10777746663007Q1328.1939893195154 444.56687278787274 1331.8754137120332 443.1087399892677Q1335.5712750629527 441.6506071906626 1339.512564706707 441.6506071906626L1339.512564706707 441.6506071906626Q1346.485615614888 441.6506071906626 1351.8850380572471 445.24540983276813Q1357.2988974580085 448.82577551647165 1360.4172804728473 455.163600254963Q1363.5356634876857 461.5014249934543 1363.5356634876857 469.61499561539534L1363.5356634876857 469.61499561539534Q1363.5356634876857 474.4946875552816 1362.3807068155234 478.7680272422825Q1361.2401871017628 483.02692997088144 1359.0602063830565 486.4484891121627Q1356.8802256643498 489.88448521184586 1353.9206491919335 492.3820790153971Q1350.9466357611154 494.87967281894834 1347.3085222438035 496.2223099503372Q1343.670408726492 497.57938404012805 1339.512564706707 497.57938404012805ZM1432.3422072317621 497.36282966409755L1432.3422072317621 497.36282966409755Q1428.1843632119776 497.36282966409755 1424.2863844434291 495.6015207390499Q1420.3884056748811 493.8402118140022 1417.1112161176202 490.60633313194745Q1413.8340265603592 487.3868914082946 1411.394180590416 482.9691821372733Q1408.9543346204732 478.5514728662521 1407.597260530682 473.31085696631504Q1406.2546233992935 468.05580410797603 1406.2546233992935 462.2377098719578L1406.2546233992935 462.2377098719578Q1406.2546233992935 458.7006550634604 1407.077530028209 455.52452421501374Q1407.914873615527 452.3628303249691 1409.4740651229463 449.8074886878097Q1411.0332566303655 447.2665840090524 1413.2132373490717 445.44752725039655Q1415.393218067779 443.62847049174076 1418.1073662473605 442.6467573204027Q1420.8070774685402 441.6506071906626 1423.9254604833786 441.6506071906626L1423.9254604833786 441.6506071906626Q1429.8446134282112 441.6506071906626 1433.5404747791308 444.0471422853996Q1437.2218991716486 446.4292404217346 1438.896586346284 450.32721919028285Q1440.5568365625172 454.225197958831 1440.5568365625172 458.7006550634604L1440.5568365625172 458.7006550634604Q1440.5568365625172 462.2377098719578 1439.257510306335 465.97688209808365Q1437.9581840501519 469.7160543242095 1435.662707664229 473.31085696631504Q1433.3816682367083 476.8912226500186 1430.3643439306838 480.21172308248555L1430.3643439306838 480.21172308248555Q1425.903323784457 485.206910689588 1420.1862882572527 489.10488945813626Q1414.4692527300485 493.0028682266844 1408.0736801579492 495.18284894539096Q1401.6781075858498 497.36282966409755 1394.9216110536995 497.36282966409755L1394.9216110536995 497.36282966409755Q1393.4634782550943 497.36282966409755 1392.7416303349933 496.1789990751311Q1392.0053454564895 494.98073152776254 1392.164151998912 493.46485089554943Q1392.3229585413342 491.96340722173824 1393.4634782550943 490.7651396743697Q1394.6039979688549 489.5668721270012 1396.8994743547778 489.5668721270012L1396.8994743547778 489.5668721270012Q1401.6781075858498 489.5668721270012 1406.7166060681584 487.70450449313927Q1411.755104550467 485.82769990087536 1416.3316203639106 482.7093168860368Q1420.9081361773542 479.5909338711983 1424.127577901007 475.95282035388664L1424.127577901007 475.95282035388664Q1426.42305428693 473.35416784152113 1428.025556669555 470.5967087867334Q1429.6424960105824 467.8536866903476 1430.4654026394983 465.0384798019517Q1431.302746226816 462.2377098719578 1431.302746226816 459.63905735959236L1431.302746226816 459.63905735959236Q1431.302746226816 454.12413925001675 1429.2238242169237 452.00190636491834Q1427.1449022070315 449.86523652141784 1423.607847398534 449.86523652141784L1423.607847398534 449.86523652141784Q1421.846538473486 449.86523652141784 1420.330657841273 450.6448322751275Q1418.829214167462 451.4244280288371 1417.6886944537014 453.04136736986453Q1416.5481747399408 454.6438697524899 1415.9129485702515 456.9393461384127Q1415.2921593589645 459.2203855659335 1415.2921593589645 462.2377098719578L1415.2921593589645 462.2377098719578Q1415.2921593589645 468.15686281679024 1417.0101574088058 473.0943025902846Q1418.7281554586475 478.03174236377896 1421.5289253886417 481.56879717227645Q1424.3441322770373 485.1058519807738 1427.505826167082 487.083715281852Q1430.6819570155285 489.04714162452814 1433.4827269455227 489.04714162452814L1433.4827269455227 489.04714162452814Q1435.460590246601 489.04714162452814 1437.3373948388644 488.2675458708185Q1439.1997624727264 487.4879501171088 1441.2353736074128 485.92875860968957Q1443.256547783697 484.3695671022703 1445.3354697935893 482.0885276747495L1445.3354697935893 482.0885276747495Q1446.7936025921945 480.428277458516 1448.1362397235835 480.4715883337221Q1449.4933138133742 480.5293361673302 1450.9514466119795 481.66985588109065L1450.9514466119795 481.66985588109065Q1452.4095794105842 482.810375594851 1452.6694446618208 484.0663909758277Q1452.9293099130573 485.30796939840224 1451.9909076169251 486.76610219700734L1451.9909076169251 486.76610219700734Q1449.3922551045603 490.72182879916363 1445.912948129671 493.06061606029255Q1442.4192041963793 495.39940332142146 1438.896586346284 496.38111649275953Q1435.3595315377866 497.36282966409755 1432.3422072317621 497.36282966409755ZM1441.3797431914331 497.36282966409755L1441.3797431914331 497.36282966409755Q1439.416316848757 497.36282966409755 1438.477914552625 496.1789990751311Q1437.5395122564933 494.98073152776254 1437.5395122564933 493.46485089554943Q1437.5395122564933 491.96340722173824 1438.477914552625 490.7651396743697Q1439.416316848757 489.5668721270012 1441.3797431914331 489.5668721270012L1441.3797431914331 489.5668721270012Q1444.8157392911166 489.5668721270012 1448.035181014769 487.54569795071694Q1451.2546227384219 485.5245237744327 1454.4307535868688 481.66985588109065Q1457.6068844353154 477.82962494615055 1460.5087130741235 472.4157655453892Q1463.4249786713335 467.01634310302984 1466.0236311836989 460.1587878620655Q1468.6222836960642 453.30123262110106 1470.860012248379 445.24540983276813Q1473.0833038422916 437.1895870444352 1474.9023606009473 428.1376141263622Q1476.721417359603 419.1000781666913 1478.0207436157862 409.2685094949086Q1479.3200698719688 399.451377781528 1479.9552960416581 388.999019898458Q1480.5760852529456 378.56109897379014 1480.5760852529456 367.7478171306694L1480.5760852529456 367.7478171306694Q1480.5760852529456 365.87101253840547 1481.9187223843342 364.9470472006755Q1483.275796474125 364.0086449045436 1485.0948532327811 364.0086449045436Q1486.9139099914369 364.0086449045436 1488.2709840812277 364.9470472006755Q1489.6136212126166 365.87101253840547 1489.6136212126166 367.7478171306694L1489.6136212126166 367.7478171306694Q1489.6136212126166 379.1818881850774 1488.7907145837007 390.19728744582653Q1487.953370996383 401.2126867065757 1486.451927322572 411.6650445896456Q1484.9360466903586 422.1174024727156 1482.7560659716519 431.77572764367386Q1480.5760852529456 441.44848977303417 1477.8763740317659 449.96629523023205Q1475.1622258521843 458.49853764583196 1471.8994732533251 465.8180755556613Q1468.6222836960642 473.1520504238927 1465.0852288875672 478.970144659911Q1461.5481740790692 484.78823889592917 1457.6501953105212 488.90277204050784Q1453.7522165419732 493.0028682266844 1449.6521203557963 495.18284894539096Q1445.5375872112181 497.36282966409755 1441.3797431914331 497.36282966409755ZM1470.2825339122978 497.36282966409755L1470.2825339122978 497.36282966409755Q1467.582822691118 497.36282966409755 1465.6049593900402 496.64098174399606Q1463.627096088962 495.9191338238946 1462.4288285415932 494.5620597341037Q1461.2449979526268 493.20498564431284 1460.6675196165456 491.18381146802864Q1460.0900412804644 489.1626372917444 1460.0900412804644 486.66504348819313L1460.0900412804644 486.66504348819313L1460.0900412804644 368.1664889243283Q1460.0900412804644 357.97399629249486 1464.045767882621 352.77669126776397Q1468.0014944847771 347.57938624303307 1475.4798389370285 347.57938624303307L1475.4798389370285 347.57938624303307Q1480.1574134592865 347.57938624303307 1483.333544307733 349.8748626289559Q1486.4952381977778 352.1559020564767 1488.054429705197 356.6746700363122Q1489.6136212126166 361.1934380161477 1489.6136212126166 367.7478171306694L1489.6136212126166 367.7478171306694Q1489.6136212126166 369.72568043174755 1488.2709840812277 370.66408272787953Q1486.9139099914369 371.5880480656095 1485.0948532327811 371.5880480656095Q1483.275796474125 371.5880480656095 1481.9187223843342 370.66408272787953Q1480.5760852529456 369.72568043174755 1480.5760852529456 367.7478171306694L1480.5760852529456 367.7478171306694Q1480.5760852529456 363.6910318196989 1479.9986069168644 361.09237930733343Q1479.435565539185 358.493726794968 1478.1795501582083 357.19440053878526Q1476.9379717356337 355.89507428260254 1475.0611671433699 355.89507428260254L1475.0611671433699 355.89507428260254Q1472.9822451334776 355.89507428260254 1471.6396080020886 357.19440053878526Q1470.2825339122978 358.493726794968 1469.6617447010108 361.1934380161477Q1469.0409554897233 363.9075861957294 1469.0409554897233 368.1664889243283L1469.0409554897233 368.1664889243283L1469.0409554897233 485.62558248324694Q1469.0409554897233 486.96821961463576 1469.44519032498 487.8633110355616Q1469.8638621186387 488.7439654980855 1470.6001469971425 489.1626372917444Q1471.321994917244 489.5668721270012 1472.260397213376 489.5668721270012L1472.260397213376 489.5668721270012Q1473.1987995095078 489.5668721270012 1473.9783952632179 489.2636960005586Q1474.757991016927 488.94608291571393 1475.4798389370285 488.3830415380347Q1476.20168685713 487.8055632019535 1476.9379717356337 487.2858326994804L1476.9379717356337 487.2858326994804Q1477.7608783645496 486.5639847793789 1478.8003393694958 487.0259674482439Q1479.839800374442 487.4879501171088 1480.5760852529456 488.3252937044266L1480.5760852529456 488.3252937044266Q1481.398991881861 489.3647547093728 1481.4567397154692 490.404215714319Q1481.5144875490773 491.44367671926517 1480.9947570466043 492.3820790153971L1480.9947570466043 492.3820790153971Q1479.839800374442 493.9412705228164 1478.0784914493943 495.08179023657675Q1476.3171825243467 496.2223099503372 1474.3393192232684 496.7997882864184Q1472.36145592219 497.36282966409755 1470.2825339122978 497.36282966409755ZM1515.0804158337978 497.36282966409755L1515.0804158337978 497.36282966409755Q1509.1612628889657 497.36282966409755 1504.584747075522 494.50431190049557Q1500.0082312620784 491.6457941368936 1497.4095787497126 485.82769990087536Q1494.8109262373473 480.00960566485713 1494.8109262373473 471.1741871228146L1494.8109262373473 471.1741871228146Q1494.8109262373473 465.77476468045523 1495.8070763670876 461.1982488670116Q1496.7887895384256 456.62173305356805 1498.7666528395039 452.9836195362564Q1500.7445161405817 449.3455060189448 1503.545286070576 446.8479122153935Q1506.3460560005697 444.35031841184224 1509.9841695178811 443.0076812804534Q1513.622283035193 441.6506071906626 1517.9966814310078 441.6506071906626L1517.9966814310078 441.6506071906626Q1521.317181863475 441.6506071906626 1524.8542366719726 442.7478160292169Q1528.39129148047 443.83058790936917 1531.5096744953084 445.60633379281893L1531.5096744953084 445.60633379281893L1531.5096744953084 445.0866032903458Q1531.5096744953084 443.52741178292655 1532.6501942090686 442.791126904423Q1533.7907139228291 442.06927898432144 1536.086190308752 442.06927898432144L1536.086190308752 442.06927898432144Q1538.3672297362727 442.06927898432144 1539.464438574827 442.7478160292169Q1540.5472104549794 443.42635307411234 1540.5472104549794 444.87004891431536L1540.5472104549794 444.87004891431536L1540.5472104549794 485.62558248324694Q1540.5472104549794 486.96821961463576 1540.965882248638 487.8633110355616Q1541.3845540422972 488.7439654980855 1542.1064019623986 489.1626372917444Q1542.8426868409024 489.5668721270012 1543.7666521786323 489.5668721270012L1543.7666521786323 489.5668721270012Q1544.8061131835784 489.5668721270012 1545.4846502284736 489.30700687576467Q1546.1631872733692 489.04714162452814 1546.8417243182648 488.527411122055Q1547.52026136316 488.00768061958195 1548.4442267008899 487.2858326994804L1548.4442267008899 487.2858326994804Q1549.1805115793936 486.66504348819313 1550.1189138755253 486.92490873942967Q1551.0428792132552 487.1847739906662 1551.9812815093874 488.00768061958195L1551.9812815093874 488.00768061958195Q1552.9196838055195 489.04714162452814 1553.0207425143335 490.2020982966905Q1553.121801223148 491.34261801045096 1552.6020707206749 492.16552463936665L1552.6020707206749 492.16552463936665Q1551.4615510069143 493.8402118140022 1549.7002420818667 494.98073152776254Q1547.9244961984168 496.121251241523 1545.9033220221327 496.7420404528103Q1543.8821478458485 497.36282966409755 1541.8032258359563 497.36282966409755L1541.8032258359563 497.36282966409755Q1539.4066907412189 497.36282966409755 1537.6453818161713 496.8430991616245Q1535.8696359327214 496.3233686591514 1534.6280575101468 495.24059677899913Q1533.3720421291705 494.1433879404448 1532.7079420426771 492.5841964330255Q1532.0294049977815 491.0250049256063 1531.7117919129369 489.04714162452814L1531.7117919129369 489.04714162452814Q1531.7117919129369 488.94608291571393 1531.6107332041229 488.5851589556632Q1531.5096744953084 488.2242349956124 1531.5096744953084 487.8055632019535L1531.5096744953084 487.8055632019535Q1529.1131394005715 491.6457941368936 1526.3556803457836 493.72471614678597Q1523.6126582493976 495.80363815667835 1520.6963926521876 496.58323391038795Q1517.7801270549776 497.36282966409755 1515.0804158337978 497.36282966409755ZM1503.9639578642345 470.7555153291557L1503.9639578642345 470.7555153291557Q1503.9639578642345 476.4725508563597 1505.3065949956235 480.5870840009383Q1506.6636690854143 484.68718018711496 1509.4211281402022 486.86716090582155Q1512.1785871949896 489.04714162452814 1516.3364312147746 489.04714162452814L1516.3364312147746 489.04714162452814Q1519.3393185623968 489.04714162452814 1522.0967776171847 488.00768061958195Q1524.8542366719726 486.96821961463576 1527.2507717667095 484.58612147830075Q1529.6328699030446 482.1895863835637 1531.5096744953084 478.34935544862367L1531.5096744953084 478.34935544862367L1531.5096744953084 453.1857369538848Q1528.2902327716556 451.2223106112087 1525.2729084656312 450.54377356631323Q1522.2555841596072 449.86523652141784 1518.93508372714 449.86523652141784L1518.93508372714 449.86523652141784Q1516.2209355475584 449.86523652141784 1513.9398961200377 450.7025801087356Q1511.6588566925166 451.5254867376513 1509.7820521002532 453.1857369538848Q1507.9052475079889 454.8604241285203 1506.6059212518062 457.34358097366953Q1505.3065949956235 459.8411747772208 1504.6424949091302 463.1761121680898Q1503.9639578642345 466.4966126005568 1503.9639578642345 470.7555153291557ZM1614.5654961821888 497.57938404012805L1614.5654961821888 497.57938404012805Q1606.3508668514337 497.57938404012805 1601.0525031178886 494.0423292316306Q1595.7397024259412 490.5052744231332 1593.198797747184 484.68718018711496Q1590.6578930684268 478.86908595109674 1590.6578930684268 471.89603504291614L1590.6578930684268 471.89603504291614Q1590.6578930684268 464.9374210931375 1592.5780085358965 459.3791921083558Q1594.4981240033667 453.82096312357413 1598.0351788118642 449.86523652141784Q1601.5722336203617 445.90950991926155 1606.3941777266396 443.7872770341631Q1611.2305587913202 441.6506071906626 1616.947594318524 441.6506071906626L1616.947594318524 441.6506071906626Q1622.0438406344406 441.6506071906626 1625.8407606941746 443.1664878228758Q1629.6376807539086 444.66793149668695 1631.7599136390068 447.72856667791734Q1633.8965834825071 450.8036388175498 1633.8965834825071 455.48121333980765L1633.8965834825071 455.48121333980765Q1633.8965834825071 459.4225029835619 1632.1785854326658 462.6563816656167Q1630.460587382824 465.87582338926944 1627.3422043679857 468.31566935921256Q1624.2238213531473 470.7555153291557 1619.9649186245479 472.3724546701831Q1615.7060158959493 473.97495705280846 1610.4076521624038 474.81230064012624Q1605.094851470457 475.649644227444 1599.1756985256243 475.75070293625816L1599.1756985256243 475.75070293625816L1599.1756985256243 468.47447590163495Q1602.6116946253078 468.47447590163495 1606.1920603090111 467.9980562743679Q1609.772425992715 467.53607360550296 1613.1073633835836 466.597671309371Q1616.4278638160508 465.659269013239 1619.0265163284162 464.15782533942786Q1621.6251688407815 462.6563816656167 1623.1410494729948 460.67851836453855Q1624.642493146806 458.7006550634604 1624.642493146806 456.2030612599092L1624.642493146806 456.2030612599092Q1624.642493146806 452.8825608274422 1622.4047645944916 451.4244280288371Q1620.1670360421767 449.96629523023205 1616.4278638160508 449.96629523023205L1616.4278638160508 449.96629523023205Q1613.0063046747696 449.96629523023205 1610.0322912439515 451.3233693200229Q1607.0727147715352 452.66600645141176 1604.7339275104064 455.3224067973853Q1602.3951402492771 457.9788071433589 1601.095813993095 461.71797936948474Q1599.7964877369118 465.4571515956106 1599.7964877369118 470.2357848266826L1599.7964877369118 470.2357848266826Q1599.7964877369118 475.95282035388664 1601.6155444955675 480.21172308248555Q1603.4346012542237 484.48506276948655 1606.7695386450923 486.86716090582155Q1610.0900390775596 489.2636960005586 1614.7676135998172 489.2636960005586L1614.7676135998172 489.2636960005586Q1617.885996614656 489.2636960005586 1620.0659773333623 488.4841002468489Q1622.245958052069 487.70450449313927 1624.180510477941 486.0875651521119Q1626.1006259454111 484.48506276948655 1628.3816653729318 482.1895863835637L1628.3816653729318 482.1895863835637Q1629.940856880351 480.6303948761444 1631.2401831365341 480.6303948761444Q1632.5395093927168 480.6303948761444 1633.9976421913216 481.77091458990486L1633.9976421913216 481.77091458990486Q1635.4557749899268 482.92587126206723 1635.7589511163692 484.22519751825Q1636.0765642012138 485.5245237744327 1635.0371031962677 486.86716090582155L1635.0371031962677 486.86716090582155Q1632.4384506839024 490.82288750797784 1628.901395875405 493.16167476910675Q1625.3643410669074 495.5004620302357 1621.68291667439 496.53992303518186Q1617.98705532347 497.57938404012805 1614.5654961821888 497.57938404012805ZM1612.4865741722965 432.1943994373327L1612.4865741722965 432.1943994373327Q1611.3316175001341 432.1943994373327 1609.772425992715 430.9528210147581Q1608.2132344852953 429.6968056337815 1608.2132344852953 428.65734462883535L1608.2132344852953 428.65734462883535Q1608.2132344852953 428.35416850239267 1608.328730152512 428.036555417548Q1608.429788861326 427.7189423327033 1608.848460654985 426.9970944126018L1608.848460654985 426.9970944126018L1619.9649186245479 409.94704653980403Q1620.4846491270214 409.1241399108883 1621.0621274631026 408.7487789924355Q1621.6251688407815 408.3878550323848 1622.4625124280997 408.3878550323848L1622.4625124280997 408.3878550323848Q1623.5019734330458 408.3878550323848 1624.9023583980425 409.1674507860944Q1626.3027433630396 409.94704653980403 1627.3999522015938 411.04425537835834Q1628.4827240817458 412.1270272585106 1628.4827240817458 413.06542955464255L1628.4827240817458 413.06542955464255Q1628.4827240817458 413.8017144331461 1628.2228588305097 414.26369710201106Q1627.9629935792727 414.72567977087607 1627.2411456591713 415.5630233581938L1627.2411456591713 415.5630233581938L1614.4500005149725 430.8373253475419Q1613.208422092398 432.1943994373327 1612.4865741722965 432.1943994373327Z " fill="#fad744" transform="matrix(0.5348955813132696,0,0,0.5348955813132696,0,73.9641721264153)"/></g></svg>